<?xml version="1.0" standalone="no"?>
<!DOCTYPE svg PUBLIC "-//W3C//DTD SVG 20010904//EN"
 "http://www.w3.org/TR/2001/REC-SVG-20010904/DTD/svg10.dtd">
<svg version="1.0" xmlns="http://www.w3.org/2000/svg"
 width="158.000000pt" height="200.000000pt" viewBox="0 0 158.000000 200.000000"
 preserveAspectRatio="xMidYMid meet">

<g transform="translate(0.000000,200.000000) scale(0.100000,-0.100000)"
fill="#FFFFFF" stroke="none">
<path d="M730 1981 c0 -5 7 -28 15 -51 8 -24 13 -50 10 -59 -3 -9 -37 -39 -74
-68 l-68 -52 -7 -87 c-3 -48 -4 -89 -2 -91 2 -3 46 -17 98 -31 90 -26 93 -28
117 -70 13 -24 29 -63 37 -88 l13 -43 -47 -34 c-26 -19 -75 -49 -110 -67 -35
-18 -74 -46 -88 -62 -23 -28 -24 -36 -24 -169 0 -126 2 -145 26 -202 14 -34
34 -99 45 -145 14 -61 28 -94 52 -123 l32 -38 12 27 c14 32 16 27 37 -78 11
-57 34 -111 94 -225 74 -142 80 -150 115 -158 20 -5 48 -20 62 -33 14 -13 28
-24 31 -24 2 0 30 20 60 44 l57 44 64 -44 c73 -50 102 -54 215 -26 l67 17
-154 327 c-109 232 -158 349 -170 403 l-17 75 50 45 c28 25 76 84 107 132 52
79 59 95 75 187 51 281 -48 523 -260 641 -121 67 -168 84 -314 111 -143 27
-156 28 -156 15z"/>
<path d="M610 1963 c0 -10 -3 -35 -7 -57 -6 -38 -6 -38 18 -26 13 7 25 14 27
15 2 2 -2 21 -9 44 -12 42 -29 55 -29 24z"/>
<path d="M307 1743 c-4 -3 -7 -17 -7 -30 0 -33 26 -29 39 7 9 26 8 30 -8 30
-10 0 -21 -3 -24 -7z"/>
<path d="M326 1210 c-17 -47 -17 -52 -2 -75 10 -16 26 -25 42 -25 27 0 46 32
59 103 7 34 5 37 -16 37 -13 0 -33 3 -44 6 -17 4 -24 -3 -39 -46z"/>
<path d="M196 1114 c-11 -28 -6 -34 19 -22 19 9 22 14 14 25 -15 17 -26 17
-33 -3z"/>
<path d="M10 514 c0 -32 141 -132 172 -122 6 2 -4 21 -22 42 -41 46 -150 105
-150 80z"/>
</g>
</svg>
